<svg xmlns="http://www.w3.org/2000/svg" viewBox="0 0 327.64 356.92"><g id="edf000c5-635d-4e2c-b735-19c5f99a36ac" data-name="Calque 2"><g id="bab2f76e-fa31-4450-bc60-36676ffa5b16" data-name="Calque 1"><path d="M327.64,89.92V267a22.78,22.78,0,0,1-13,20.57l-141,67.13a22.78,22.78,0,0,1-19.62,0L13,287.57A22.79,22.79,0,0,1,0,267V89.92A22.77,22.77,0,0,1,13,69.35L154,2.22a22.78,22.78,0,0,1,19.62,0l141,67.13a22.84,22.84,0,0,1,13,20.57Z" fill="#b51432"/><path d="M327.64,89.92V267a22.78,22.78,0,0,1-13,20.57l-141,67.13a22.78,22.78,0,0,1-19.62,0L13,287.57A22.79,22.79,0,0,1,0,267V89.92A22.77,22.77,0,0,1,13,69.35L154,2.22a22.78,22.78,0,0,1,19.62,0l141,67.13a22.84,22.84,0,0,1,13,20.57Z" opacity="0.1"/><path d="M327.64,89.92V267a22.81,22.81,0,0,1-12.76,20.45l-.23.11-141,67.13a22.78,22.78,0,0,1-9.81,2.22V153.53l160-76.19a22.64,22.64,0,0,1,3.8,12.58Z" fill="#b51432"/><path d="M327.64,89.92V267a22.81,22.81,0,0,1-12.76,20.45l-.23.11-141,67.13a22.78,22.78,0,0,1-9.81,2.22V153.53l160-76.19a22.64,22.64,0,0,1,3.8,12.58Z" opacity="0.2"/><path d="M323.84,77.34a22.59,22.59,0,0,0-9.19-8l-141-67.13a22.78,22.78,0,0,0-19.62,0l-1,.46,140,66.67a22.79,22.79,0,0,1,13,20.57V267a22.77,22.77,0,0,1-13,20.57L153,354.24l1,.46a22.78,22.78,0,0,0,19.62,0l141-67.13a22.78,22.78,0,0,0,13-20.57V89.92a22.64,22.64,0,0,0-3.8-12.58Z" opacity="0.1"/><path d="M163.82,153.53V356.92A22.78,22.78,0,0,1,154,354.7L13,287.57A22.79,22.79,0,0,1,0,267V89.92A22.71,22.71,0,0,1,3.79,77.34Z" fill="#b51432"/><ellipse cx="257.02" cy="213.7" rx="18.64" ry="13.74" transform="translate(10.81 439.76) rotate(-82.3)" fill="#f1f1f1"/><ellipse cx="97.74" cy="72.64" rx="18.65" ry="13.68" transform="translate(-3.85 5.48) rotate(-3.15)" fill="#f1f1f1"/><ellipse cx="162.3" cy="40.7" rx="18.65" ry="13.68" transform="translate(-1.99 8.98) rotate(-3.15)" fill="#f1f1f1"/><ellipse cx="229.93" cy="74.85" rx="18.65" ry="13.68" transform="translate(-3.77 12.75) rotate(-3.15)" fill="#f1f1f1"/><ellipse cx="166.89" cy="104.51" rx="18.65" ry="13.68" transform="translate(-5.49 9.33) rotate(-3.15)" fill="#f1f1f1"/><ellipse cx="118.31" cy="183.54" rx="13.68" ry="18.65" transform="translate(-9.91 6.78) rotate(-3.15)" fill="#f1f1f1"/><ellipse cx="40.1" cy="251.19" rx="13.68" ry="18.65" transform="translate(-13.75 2.58) rotate(-3.15)" fill="#f1f1f1"/></g></g></svg>