<svg xmlns="http://www.w3.org/2000/svg" viewBox="0 0 394.75 151.95"><g id="e3d33a5c-025e-4fe9-8f11-e6061437025b" data-name="Calque 2"><g id="e4993036-b8ba-448e-a4b2-e3d3e766a75c" data-name="Calque 1"><path d="M34,72.39,71.13,117H49.9L17.5,76.86V117H0V3.32H17.5V68.67L50,29.31h21.1Z" fill="#232528"/><path d="M134.56,55q7.08,7.82,7.08,22v40H124.26V79q0-8.19-4.22-12.73c-2.82-3-6.66-4.53-11.55-4.53s-8.93,1.62-11.91,4.84-4.47,7.87-4.47,13.91V117H74.6V48.18H92.11V62a21.93,21.93,0,0,1,9-10.86,26.73,26.73,0,0,1,14.46-3.91Q127.5,47.19,134.56,55Z" fill="#232528"/><path d="M168.33,48.18V117H150.82V48.18Z" fill="#232528"/><path d="M221.83,53.64a27.43,27.43,0,0,1,9.43,16.89H214.88a13.63,13.63,0,0,0-4.47-8,13.48,13.48,0,0,0-9.06-3,10.44,10.44,0,0,0-6.95,2.11,7.1,7.1,0,0,0-2.49,5.71,5.8,5.8,0,0,0,2,4.6,14.24,14.24,0,0,0,5,2.73q3,1,8.57,2.36a88.76,88.76,0,0,1,12.72,3.66,21,21,0,0,1,8.44,6.08q3.54,4.17,3.54,11.24a17.33,17.33,0,0,1-6.89,14.27q-6.88,5.46-18.56,5.46-13.4,0-21.47-6T175.4,94.61h16.76a11.32,11.32,0,0,0,4.47,8c2.56,1.94,5.92,2.91,10.05,2.91q4.47,0,6.83-2.17a7.34,7.34,0,0,0,2.36-5.65,6.23,6.23,0,0,0-2.05-4.84A13.75,13.75,0,0,0,208.73,90q-3-1-8.62-2.36a96.8,96.8,0,0,1-12.48-3.54,19.83,19.83,0,0,1-8.19-5.77q-3.42-4-3.42-10.93a17.89,17.89,0,0,1,6.83-14.52q6.83-5.58,18.87-5.59Q214.26,47.31,221.83,53.64Z" fill="#232528"/><path d="M275.7,101.93v15h-9.18q-11.55,0-17.69-5.58t-6.15-18.62V63h-9.56V48.18h9.56V30.84h17.51V48.18h15.39V63H260.19V93q0,5,2,7c1.33,1.32,3.56,2,6.71,2Z" fill="#232528"/><path d="M346.09,85.92h-50.4q.38,9.19,5,13.53a16,16,0,0,0,11.42,4.35,16.61,16.61,0,0,0,10.12-3,13.19,13.19,0,0,0,5.15-8.07h18.5A29.7,29.7,0,0,1,340,105.66a30.54,30.54,0,0,1-11.49,8.94,39.38,39.38,0,0,1-33.45-1.06,30.05,30.05,0,0,1-12.17-12.23,38.41,38.41,0,0,1-4.34-18.74,38.83,38.83,0,0,1,4.34-18.81,29.64,29.64,0,0,1,12.17-12.23,37.06,37.06,0,0,1,17.87-4.22,36.29,36.29,0,0,1,17.82,4.22,29.8,29.8,0,0,1,11.79,11.61,34,34,0,0,1,3.54,22.78ZM324.67,65.44a16.77,16.77,0,0,0-11.73-4.35A17.16,17.16,0,0,0,301,65.44q-4.84,4.35-5.34,12.78h33.39Q329.46,69.79,324.67,65.44Z" fill="#232528"/><path d="M380.6,51a27,27,0,0,1,14.15-3.79V65.93h-5.09q-19.25,0-19.24,17.88V117H352.91V48.18h17.51V61.34A28.73,28.73,0,0,1,380.6,51Z" fill="#232528"/><path d="M179.93,11V32.79a2.79,2.79,0,0,1-1.59,2.52L161,43.56a2.82,2.82,0,0,1-2.41,0l-17.32-8.25a2.79,2.79,0,0,1-1.59-2.52V11a2.78,2.78,0,0,1,1.59-2.52L158.61.27a2.82,2.82,0,0,1,2.41,0l17.32,8.25A2.78,2.78,0,0,1,179.93,11Z" fill="#b51432"/><path d="M179.93,11V32.79a2.79,2.79,0,0,1-1.59,2.52L161,43.56a2.82,2.82,0,0,1-2.41,0l-17.32-8.25a2.79,2.79,0,0,1-1.59-2.52V11a2.78,2.78,0,0,1,1.59-2.52L158.61.27a2.82,2.82,0,0,1,2.41,0l17.32,8.25A2.78,2.78,0,0,1,179.93,11Z" opacity="0.1"/><path d="M179.93,11V32.79a2.8,2.8,0,0,1-1.57,2.51h0L161,43.56a2.81,2.81,0,0,1-1.21.27v-25L179.47,9.5a2.84,2.84,0,0,1,.46,1.54Z" fill="#b51432"/><path d="M179.93,11V32.79a2.8,2.8,0,0,1-1.57,2.51h0L161,43.56a2.81,2.81,0,0,1-1.21.27v-25L179.47,9.5a2.84,2.84,0,0,1,.46,1.54Z" opacity="0.2"/><path d="M179.47,9.5a2.82,2.82,0,0,0-1.13-1L161,.27a2.82,2.82,0,0,0-2.41,0l-.12.06,17.2,8.19A2.78,2.78,0,0,1,177.28,11V32.79a2.79,2.79,0,0,1-1.59,2.52l-17.2,8.19.12.06a2.82,2.82,0,0,0,2.41,0l17.32-8.25a2.79,2.79,0,0,0,1.59-2.52V11a2.84,2.84,0,0,0-.46-1.54Z" opacity="0.1"/><path d="M159.81,18.85v25a2.8,2.8,0,0,1-1.2-.27l-17.32-8.25a2.79,2.79,0,0,1-1.59-2.52V11a2.84,2.84,0,0,1,.46-1.54Z" fill="#b51432"/><ellipse cx="171.26" cy="26.24" rx="2.29" ry="1.69" transform="matrix(0.13, -0.99, 0.99, 0.13, 122.31, 192.44)" fill="#f1f1f1"/><ellipse cx="151.7" cy="8.92" rx="2.29" ry="1.68" transform="translate(-0.26 8.35) rotate(-3.15)" fill="#f1f1f1"/><ellipse cx="159.63" cy="5" rx="2.29" ry="1.68" transform="translate(-0.03 8.78) rotate(-3.15)" fill="#f1f1f1"/><ellipse cx="167.93" cy="9.19" rx="2.29" ry="1.68" transform="translate(-0.25 9.25) rotate(-3.15)" fill="#f1f1f1"/><ellipse cx="160.19" cy="12.83" rx="2.29" ry="1.68" transform="translate(-0.46 8.83) rotate(-3.15)" fill="#f1f1f1"/><ellipse cx="154.23" cy="22.54" rx="1.68" ry="2.29" transform="translate(-1.01 8.51) rotate(-3.15)" fill="#f1f1f1"/><ellipse cx="144.62" cy="30.84" rx="1.68" ry="2.29" transform="translate(-1.48 8) rotate(-3.15)" fill="#f1f1f1"/><g opacity="0.5"><path d="M223.6,144l7.18-3.7v1.07l-6.05,3v0l6.05,3v1.06l-7.18-3.69Z" fill="#232528"/><path d="M234.11,148.53c0-.51.06-1.27.06-1.93v-9h1.34v4.7h0a2.79,2.79,0,0,1,2.55-1.38c1.86,0,3.17,1.55,3.16,3.83,0,2.67-1.69,4-3.36,4a2.66,2.66,0,0,1-2.51-1.4h0l-.06,1.23Zm1.4-3a2.74,2.74,0,0,0,.07.5,2.1,2.1,0,0,0,2,1.59c1.42,0,2.27-1.16,2.27-2.88,0-1.5-.77-2.78-2.22-2.78a2.17,2.17,0,0,0-2.08,1.67,2.68,2.68,0,0,0-.08.56Z" fill="#232528"/><path d="M244.59,141l1.64,4.43c.17.49.36,1.08.48,1.53h0c.14-.45.3-1,.48-1.56l1.49-4.4h1.44l-2,5.34c-1,2.57-1.64,3.89-2.57,4.69a3.66,3.66,0,0,1-1.67.88l-.34-1.14a3.74,3.74,0,0,0,1.19-.67,4.13,4.13,0,0,0,1.14-1.51,1,1,0,0,0,.11-.33,1.17,1.17,0,0,0-.09-.35L243.11,141Z" fill="#232528"/><path d="M259.69,144.85l-7.18,3.68v-1.06l6.1-3v0l-6.1-3V140.3l7.18,3.68Z" fill="#232528"/><path d="M272.69,145.89a10.44,10.44,0,0,0-1.6,2.33c0,.54,1.09.54,1.73.54,3.6,0,6.82-.35,9.47-3,.22-.26.38-.42.48-.42s.09.06.09.13a4.44,4.44,0,0,1-.22.83l-1.18,3.25H265.73l10.88-14a3.27,3.27,0,0,0,.77-1.25c0-.57-1-.57-2.05-.57-3.79,0-5.93.25-8.45,3.22-.06.07-.16.19-.25.19s-.07-.09-.07-.12a2.23,2.23,0,0,1,.13-.51L268,133h14.19Z" fill="#232528"/><path d="M298.37,138.43c0-3.13-1.5-5.33-4.82-5.33-2.9,0-4.47,2.58-4.82,5.33Zm-9.76.6c-.07.74-.1,1.41-.1,2.08,0,5.93,3.06,8.13,6.16,8.13,3.67,0,6.38-2.52,7.46-6.25h.67c-1,4.4-4.21,7-8.55,7-5.42,0-9.44-3.67-9.44-8.77s4-8.78,9.44-8.78c3.48,0,7.69,2.11,8.14,6.54Z" fill="#232528"/><path d="M309.15,137.44h.06c.74-2.71,2.3-4.95,6.51-4.95,3.51,0,6.8,1.82,6.8,6.9v6.15c-.07,3,.35,3.48,1.27,3.8.23.06.42.16.42.22s-.16.1-.48.1-1.12-.1-2.87-.1-2.87.1-3.29.1c-.19,0-.35,0-.35-.1s.07-.16.29-.19c1.15-.13,1.72-1,1.72-3.83v-6.19c0-2.93-1.31-6.06-4.69-6.06-3.79,0-5,3.89-5,8.36v3.89c0,2,.1,3.51,1.53,3.77.23,0,.35.09.35.19s-.09.16-.28.16-1.54-.1-3.26-.1-3.19.1-3.41.1-.29,0-.29-.16.13-.16.35-.19c1.6-.26,1.73-1.76,1.73-3.77v-7.91c0-1.91-.23-3-1.12-3.38-.35-.16-.58-.26-.58-.32s.23-.1.61-.16a27.56,27.56,0,0,0,4-.93Z" fill="#232528"/><path d="M326.82,128.89a1.9,1.9,0,1,1,3.8,0,1.9,1.9,0,0,1-3.8,0m.51,7.37c0-1.6-.6-1.79-1.11-2.08-.19-.09-.55-.09-.55-.19s.36-.09.58-.12c1.5-.29,2.84-.61,4.37-1v12.7c0,2,.19,3.45,1.66,3.73.19,0,.32.1.32.29s-.16.1-.45.1-1.47-.1-3.19-.1-2.87.1-3.19.1-.45,0-.45-.1.13-.25.32-.29c1.47-.28,1.69-1.72,1.69-3.73Z" fill="#232528"/><path d="M344.15,144.52c-.67-1.12-2.08-3.92-3.8-3.92-1.12,0-1.12,1.27-1.12,2.64v2.3c0,2,.16,3.22,1.73,3.77.16,0,.28.09.28.19s-.16.16-.35.16-1.56-.1-3.32-.1-3,.1-3.19.1-.31-.07-.31-.16.09-.13.22-.19c1.53-.48,1.66-2.36,1.66-5V131.6c0-1.88-.13-3.35-1.18-3.51-.35-.06-.55-.16-.55-.29s.29-.15.61-.25c1.53-.38,2.87-.7,4.4-1.12v13.78l5.36-4.46c.74-.61,1.18-1.12,1.18-1.66s-.38-.7-.54-.86-.32-.1-.32-.26.19-.13.45-.13,1.4.13,3.06.13,1.95-.13,3-.13c.29,0,.44,0,.44.2s-.54.19-1.05.32a14.75,14.75,0,0,0-5.17,2.71l-4.72,3.57v.06c4.34.1,5.3,1.76,7.5,5.27,1.08,1.72,2.42,3.51,4.15,4.3.16.07.31.13.31.23s-.15.16-.35.16-1.59-.1-3.19-.1c-.73,0-1.46.1-2.1.1Z" fill="#232528"/><path d="M366,140h-1.89c-3.44,0-7,1-7,5.23a3.87,3.87,0,0,0,3.95,4c3.77,0,4.92-4,4.92-7Zm3.28,6.8c0,1.05.16,2,1.15,2.45.19.1.32.1.32.19s-.19.13-.41.13h-3.45a9.6,9.6,0,0,1-.77-3.25H366a5.94,5.94,0,0,1-5.9,3.73c-3.32,0-6.73-1.53-6.73-5.33,0-4.85,7.4-5.32,10.75-5.32H366v-1.06c0-3.06-1.44-5.23-4.66-5.23-2.94,0-4.66.86-5.81,3.67-.12.29-.19.54-.25.54s-.1-.16-.16-.35l-.83-2.87a14.49,14.49,0,0,1,7.53-1.6c3.64,0,7.46,1.31,7.46,5.33Z" fill="#232528"/></g></g></g></svg>