<svg version="1" xmlns="http://www.w3.org/2000/svg" width="1428" height="1428" viewBox="0 0 1071.000000 1071.000000"><path d="M518.6 1.5c-3.3.9-10.2 3.6-15.5 6.1-5.3 2.4-103.2 49.1-217.7 103.5C124.8 187.6 75.8 211.3 70.6 215.2c-7.7 5.8-16.3 16.3-20.6 25.2-6.4 13.5-6-8.2-6 295.1 0 307-.6 280.4 6.9 296 5 10.2 11.2 17.9 19.5 24.1 9.3 7 436.5 210.4 448.1 213.4 10.4 2.7 23.6 2.7 34.1 0 11.6-3 438.5-206.3 447.9-213.3 8.2-6.1 15.3-14.9 20-24.3 7-14.4 6.5 9.3 6.5-295.9s.5-281.6-6.5-296c-4.4-9.2-12.8-19.2-21-25-4.4-3.2-75.6-37.6-221.8-107.2C659.4 51 559.8 3.9 556.5 2.8c-7.9-2.8-29.1-3.5-37.9-1.3zm31.9 82c23.5 6 38.9 24.2 35.6 42.1-3.7 19.8-25.7 35.3-52.6 37.1-38.1 2.4-67.6-25.3-55.3-51.9 10.3-22.3 43.3-34.7 72.3-27.3zm-193 96c14.3 3.8 25.8 12.1 31.6 22.7 3.1 5.7 3.4 7.1 3.4 14.3 0 10.3-3.2 16.9-12.1 25.5-11.3 10.8-26.3 16.3-44.9 16.4-17.3 0-31.3-4.8-41.7-14.3-7.8-7.1-11-13.7-11.6-23.2-.4-7-.2-8.4 2.5-14.1 1.7-3.5 4.5-8 6.2-10.1 7.6-8.5 21.1-15.7 34.6-18.3 8.6-1.6 23.7-1.1 32 1.1zm393.5 5.9c19.5 4.2 34.5 16.8 37.6 31.5 3.9 19-9.9 36.9-35.1 45.3-6 2-9 2.3-21.5 2.3-11.6 0-15.6-.4-20-1.9-15-5.1-25.5-13.2-30.5-23.3-2.4-4.8-2.9-7.1-2.9-13.3-.1-6.3.4-8.5 2.8-13.5 6-12.2 20.2-22.5 36.8-26.6 8.9-2.1 23.9-2.4 32.8-.5zm-188.7 89.1c15.2 3.2 29.3 13 34.8 24.1 2 4.1 2.4 6.4 2.4 13.9 0 8-.3 9.6-2.9 14.2-5.8 10.6-17.3 19.4-31 24-7.4 2.5-9.4 2.7-23.1 2.7-14 0-15.5-.2-22.5-2.8-13.6-5.2-23.8-13.6-28.3-23.4-3.3-7.1-3-17.9.5-25.5 6.3-13.4 22-23.8 42.3-28.1 4.8-.9 21.6-.4 27.8.9zm-150.7 224c11.5 5.6 21.8 20 26.1 36.5 2.3 8.8 2.3 26.3 0 35-4.3 16.2-14.6 29.6-26.2 33.9-15.4 5.8-31.6-.8-42.4-17.4-19.1-29.2-11.7-74.4 14.2-87.6 6.6-3.4 8.7-3.9 15.9-3.5 4.8.2 8.3 1.1 12.4 3.1zm421.2 91c14.6 7.9 23.2 25.4 23.2 47.1 0 18.7-6.3 35.6-17.6 47.1-16 16.4-36.7 16.8-50.8 1.2-19.4-21.6-17.6-63.7 3.7-85.7 9.5-9.9 17.4-13.4 28.7-12.9 6 .3 8.7.9 12.8 3.2zM177.2 701.8c8.6 4.2 15.6 11.9 20.7 22.6 11.9 24.9 8.7 55-7.8 72.9-7.1 7.6-13.5 10.9-22.6 11.5-9.8.6-16.7-2.1-24.8-9.8-12.1-11.4-17.6-24.4-18.4-43.6-.6-14 .9-23.2 5.6-32.9 10.2-21.4 29.1-29.7 47.3-20.7z"/></svg>